# xmcd
#
# Track frame offsets:
# 150
# 19862
# 45552
# 75332
# 94502
# 117787
# 151100
# 164297
# 186132
#
# Disc length: 2534 seconds
#
#
# Revision: 1
# Processed by: cddbd v1.5.2PL0 Copyright (c) Steve Scherf et al.
# Submitted via: FreeRIP 2.951 
#
DISCID=5809e409
DTITLE=Hobo Blues Band - Még élünk
DYEAR=1993
DGENRE=Blues
TTITLE0=Országút blues
TTITLE1=Tetõ alatt a ház
TTITLE2=Batthyány tér blues
TTITLE3=Betegség blues
TTITLE4=Nekem is fáj
TTITLE5=A hitetlenek dala
TTITLE6=Mindennek vége
TTITLE7=Nagyon fáj
TTITLE8=Ne vénülj meg!
EXTD=YEAR: 1993 ID3G: 0\nby Lajos
EXTT0=
EXTT1=
EXTT2=
EXTT3=
EXTT4=
EXTT5=
EXTT6=
EXTT7=
EXTT8=
PLAYORDER=
